<?xml version="1.0" encoding="utf-8"?>
<!-- Generator: Adobe Illustrator 16.0.0, SVG Export Plug-In . SVG Version: 6.00 Build 0)  -->
<!DOCTYPE svg PUBLIC "-//W3C//DTD SVG 1.1//EN" "http://www.w3.org/Graphics/SVG/1.1/DTD/svg11.dtd">
<svg version="1.1" id="Capa_1" xmlns="http://www.w3.org/2000/svg" xmlns:xlink="http://www.w3.org/1999/xlink" x="0px" y="0px"
	 width="1200px" height="1200px" viewBox="0 0 1200 1200" enable-background="new 0 0 1200 1200" xml:space="preserve">
<path fill-rule="evenodd" clip-rule="evenodd" fill="#22D3B9" d="M50,710.226c34.742-102.501,142.035-98.33,200.473-34.294
	c63.52,69.607,99.703,103.128,166.551,169.688c1.27,1.259,3.25,1.813,6.617,3.627c6.617-9.959,13.336-20.043,20.039-30.143
	c154.473-232.393,309.328-464.526,463.082-697.391c30.664-46.434,70.094-74.934,126.418-69.249
	c58.184,5.876,96.215,39.537,113.031,96.169c0.457,1.533,2.492,2.606,3.789,3.892c0,16.996,0,33.992,0,50.988
	c-7.52,16.09-13.133,33.443-22.844,48.082c-184.48,278.251-369.293,556.28-554.43,834.106
	c-50.09,75.183-136.902,83.505-200.543,20.013c-99.551-99.319-166.566-167.258-264.598-268.06
	C84.566,814.001,68.996,783.112,50,755.55C50,740.445,50,725.33,50,710.226z"/>
</svg>
