<?xml version="1.0" encoding="utf-8"?>
<!-- Generator: Adobe Illustrator 16.0.0, SVG Export Plug-In . SVG Version: 6.00 Build 0)  -->
<!DOCTYPE svg PUBLIC "-//W3C//DTD SVG 1.1//EN" "http://www.w3.org/Graphics/SVG/1.1/DTD/svg11.dtd">
<svg version="1.1" id="Layer_1" xmlns="http://www.w3.org/2000/svg" xmlns:xlink="http://www.w3.org/1999/xlink" x="0px" y="0px"
	 width="17px" height="16px" viewBox="0 0 17 16" enable-background="new 0 0 17 16" xml:space="preserve">
<g>
	<g>
		<path d="M16.391,1.116h-3.392V0.602C12.999,0.264,12.73,0,12.39,0c-0.343,0-0.609,0.264-0.609,0.602v0.514H4.948V0.602
			C4.948,0.264,4.68,0,4.338,0C3.997,0,3.729,0.264,3.729,0.602v0.514h-3.12C0.268,1.116,0,1.38,0,1.718v13.695
			C0,15.735,0.282,16,0.609,16h15.781C16.732,16,17,15.735,17,15.399V1.718C17,1.38,16.732,1.116,16.391,1.116z M16.032,15.059
			H0.968V5.081h15.064V15.059z M16.047,4.124H0.968V1.948h2.761v0.323c0,0.338,0.268,0.602,0.609,0.602
			c0.342,0,0.609-0.264,0.609-0.602V1.948h6.833v0.323c0,0.338,0.267,0.602,0.609,0.602c0.341,0,0.609-0.264,0.609-0.602V1.948
			h3.048V4.124z M4.249,9.044h8.768c0.341,0,0.609-0.141,0.609-0.479c0-0.337-0.269-0.477-0.609-0.477H4.249
			c-0.341,0-0.609,0.14-0.609,0.477C3.64,8.903,3.908,9.044,4.249,9.044z M4.249,12.074h4.384c0.342,0,0.609-0.265,0.609-0.604
			c0-0.335-0.268-0.477-0.609-0.477H4.249c-0.341,0-0.609,0.142-0.609,0.477C3.64,11.81,3.908,12.074,4.249,12.074z"/>
	</g>
</g>
</svg>
