<?xml version="1.0" encoding="UTF-8" standalone="no"?>
<!-- Generator: Adobe Illustrator 16.0.0, SVG Export Plug-In . SVG Version: 6.00 Build 0)  -->

<svg
   xmlns:dc="http://purl.org/dc/elements/1.1/"
   xmlns:cc="http://creativecommons.org/ns#"
   xmlns:rdf="http://www.w3.org/1999/02/22-rdf-syntax-ns#"
   xmlns:svg="http://www.w3.org/2000/svg"
   xmlns="http://www.w3.org/2000/svg"
   xmlns:sodipodi="http://sodipodi.sourceforge.net/DTD/sodipodi-0.dtd"
   xmlns:inkscape="http://www.inkscape.org/namespaces/inkscape"
   version="1.1"
   id="Layer_1"
   x="0px"
   y="0px"
   width="16.43"
   height="18.757999"
   viewBox="0 0 16.43 18.757999"
   enable-background="new 0 0 16 18"
   xml:space="preserve"
   inkscape:version="0.91 r13725"
   sodipodi:docname="timer_icon.svg"><metadata
     id="metadata9"><rdf:RDF><cc:Work
         rdf:about=""><dc:format>image/svg+xml</dc:format><dc:type
           rdf:resource="http://purl.org/dc/dcmitype/StillImage" /><dc:title></dc:title></cc:Work></rdf:RDF></metadata><defs
     id="defs7" /><sodipodi:namedview
     pagecolor="#ffffff"
     bordercolor="#666666"
     borderopacity="1"
     objecttolerance="10"
     gridtolerance="10"
     guidetolerance="10"
     inkscape:pageopacity="0"
     inkscape:pageshadow="2"
     inkscape:window-width="1083"
     inkscape:window-height="710"
     id="namedview5"
     showgrid="false"
     inkscape:zoom="13.111111"
     inkscape:cx="8.2737288"
     inkscape:cy="9.4171356"
     inkscape:window-x="435"
     inkscape:window-y="98"
     inkscape:window-maximized="0"
     inkscape:current-layer="Layer_1"
     fit-margin-top="0"
     fit-margin-left="0"
     fit-margin-right="0"
     fit-margin-bottom="0" /><path
     d="m 8.215,2.734 c -4.339,0 -7.86500001,3.525 -7.86500001,7.837 0,4.312 3.52600001,7.837 7.86500001,7.837 4.339,0 7.865,-3.498 7.865,-7.837 0,-4.338 -3.526,-7.837 -7.865,-7.837 z m 0,15.133 c -4.041,0 -7.32200001,-3.283 -7.32200001,-7.296 0,-4.013 3.28100001,-7.295 7.32200001,-7.295 4.041,0 7.322,3.255 7.322,7.295 10e-4,4.042 -3.281,7.296 -7.322,7.296 z M 6.588,0.34999999 l 3.254,0 c 0.364,0 0.364,0.543 0,0.543 l -3.254,0 c -0.364,0 -0.363,-0.543 0,-0.543 z M 13.775,3.873 C 13.522,3.62 13.902,3.24 14.155,3.494 l 1.139,1.139 c 0.257,0.257 -0.028,0.625 -0.38,0.38 L 13.775,3.873 Z M 9.3,10.571 c 0,1.433 -2.17,1.437 -2.17,0 0,-0.515 0.353,-0.922 0.813,-1.057 l 0,-3.825 c 0,-0.363 0.543,-0.363 0.543,0 l 0,3.825 C 8.948,9.649 9.3,10.056 9.3,10.571 Z"
     id="path3"
     style="fill:#000000;fill-opacity:1;stroke:#000000;stroke-width:0.69999999;stroke-miterlimit:4;stroke-dasharray:none;stroke-opacity:1"
     inkscape:connector-curvature="0" /></svg>